# xmcd
#
# Track frame offsets:
#	150
#	14848
#	32931
#	51404
#	77163
#	95622
#	120546
#	136107
#
# Disc length: 1966 seconds
#
# Revision: 0
# Processed by: cddbd v1.4PL0 Copyright (c) Steve Scherf et al.
# Submitted via: dBpowerAMP V4.0
#
DISCID=6b07ac08
DTITLE=Brian 'Breeze' Cayolle - Soul Time
DYEAR=1999
DGENRE=Soul
TTITLE0=01The Jungle Boss
TTITLE1=02Electric Ladyland
TTITLE2=03Walking In The Sun
TTITLE3=04Soul Serenade
TTITLE4=05So In Love
TTITLE5=06Burnin'
TTITLE6=07Tupelo Honey
TTITLE7=08In Love We Grow
EXTD=
EXTT0=
EXTT1=
EXTT2=
EXTT3=
EXTT4=
EXTT5=
EXTT6=
EXTT7=
PLAYORDER=
